HIERARCHY
ROOT joint_Root
{
	OFFSET 0.0 0.0 0.0
	CHANNELS 6 Xposition Yposition Zposition Zrotation Xrotation Yrotation 
	JOINT Hips
	{
		OFFSET 4.5925 91.4895 -427.239
		CHANNELS 6 Xposition Yposition Zposition Zrotation Xrotation Yrotation 
		JOINT Spine
		{
			OFFSET 15.7357 0.0 0.0
			CHANNELS 6 Xposition Yposition Zposition Zrotation Xrotation Yrotation 
			JOINT Chest
			{
				OFFSET 8.98455 -0.406207 0.0
				CHANNELS 6 Xposition Yposition Zposition Zrotation Xrotation Yrotation 
				JOINT Neck
				{
					OFFSET 16.3773 0.0 0.0
					CHANNELS 6 Xposition Yposition Zposition Zrotation Xrotation Yrotation 
					JOINT Head
					{
						OFFSET 6.45672 0.0 0.0
						CHANNELS 6 Xposition Yposition Zposition Zrotation Xrotation Yrotation 
						End Site
						{
							OFFSET 0.0 0.0 0.0
						}
					}
				}
				JOINT Shoulder_L
				{
					OFFSET 12.9942 -0.242716 4.98039
					CHANNELS 6 Xposition Yposition Zposition Zrotation Xrotation Yrotation 
					JOINT UpperArm_L
					{
						OFFSET 5.34809 0.0 0.0
						CHANNELS 6 Xposition Yposition Zposition Zrotation Xrotation Yrotation 
						JOINT LowerArm_L
						{
							OFFSET 24.3286 1.87007e-05 0.0
							CHANNELS 6 Xposition Yposition Zposition Zrotation Xrotation Yrotation 
							JOINT Hand_L
							{
								OFFSET 22.2916 0.0 0.0
								CHANNELS 6 Xposition Yposition Zposition Zrotation Xrotation Yrotation 
								End Site
								{
									OFFSET 0.0 0.0 0.0
								}
							}
						}
					}
				}
				JOINT Shoulder_R
				{
					OFFSET 12.9945 -0.242716 -4.98039
					CHANNELS 6 Xposition Yposition Zposition Zrotation Xrotation Yrotation 
					JOINT UpperArm_R
					{
						OFFSET -5.34813 0.0 0.0
						CHANNELS 6 Xposition Yposition Zposition Zrotation Xrotation Yrotation 
						JOINT LowerArm_R
						{
							OFFSET -24.3289 0.000322201 0.0
							CHANNELS 6 Xposition Yposition Zposition Zrotation Xrotation Yrotation 
							JOINT Hand_R
							{
								OFFSET -22.2915 -0.000108084 0.0
								CHANNELS 6 Xposition Yposition Zposition Zrotation Xrotation Yrotation 
								End Site
								{
									OFFSET 0.0 0.0 0.0
								}
							}
						}
					}
				}
			}
		}
		JOINT UpperLeg_L
		{
			OFFSET -2.19248 -6.46944 0.0
			CHANNELS 6 Xposition Yposition Zposition Zrotation Xrotation Yrotation 
			JOINT LowerLeg_L
			{
				OFFSET 39.0811 0.0 -1.23785e-05
				CHANNELS 6 Xposition Yposition Zposition Zrotation Xrotation Yrotation 
				JOINT Foot_L
				{
					OFFSET 40.9854 0.0 -1.26872e-05
					CHANNELS 6 Xposition Yposition Zposition Zrotation Xrotation Yrotation 
					JOINT Toes_L
					{
						OFFSET 11.7543 0.0 0.0
						CHANNELS 6 Xposition Yposition Zposition Zrotation Xrotation Yrotation 
						End Site
						{
							OFFSET 0.0 0.0 0.0
						}
					}
				}
			}
		}
		JOINT UpperLeg_R
		{
			OFFSET -2.19251 6.46944 0.0
			CHANNELS 6 Xposition Yposition Zposition Zrotation Xrotation Yrotation 
			JOINT LowerLeg_R
			{
				OFFSET -39.0811 -0.00228153 -0.0401928
				CHANNELS 6 Xposition Yposition Zposition Zrotation Xrotation Yrotation 
				JOINT Foot_R
				{
					OFFSET -40.9854 0.0 0.0
					CHANNELS 6 Xposition Yposition Zposition Zrotation Xrotation Yrotation 
					JOINT Toes_R
					{
						OFFSET -11.7543 0.0 0.0
						CHANNELS 6 Xposition Yposition Zposition Zrotation Xrotation Yrotation 
						End Site
						{
							OFFSET 0.0 0.0 0.0
						}
					}
				}
			}
		}
	}
}
MOTION
Frames:	4
Frame Time:	0.0333333
0.000000 0.000000 0.000000 0.000000 0.000000 -0.000000 -3.652730 84.267100 469.339000 -89.117900 4.896840 172.775000 15.735700 0.000005 -0.000001 105.299000 82.048900 -105.755000 8.984550 -0.406207 -0.000000 7.604770 4.180120 -1.188490 16.377300 -0.000001 -0.000001 -5.319150 -5.652320 2.798830 6.456720 -0.000001 -0.000000 -15.822800 -9.022090 0.745919 12.994200 -0.242716 4.980390 -89.198700 -2.202570 -70.026200 5.348090 -0.000007 -0.000001 -70.857300 19.860500 18.251800 24.328600 0.000019 0.000005 11.197400 -1.662940 -98.339200 22.291600 -0.000001 0.000005 13.845600 5.479130 -5.704660 12.994500 -0.242716 -4.980390 89.128300 5.287290 -80.625200 -5.348130 -0.000001 -0.000004 -63.967000 40.436200 -10.358000 -24.328900 0.000322 -0.000009 -3.012590 -0.326869 -83.653500 -22.291500 -0.000108 -0.000004 16.064500 5.500760 -6.574050 -2.192480 -6.469440 -0.000000 175.664000 -0.031159 -31.035200 39.081100 -0.000007 -0.000012 -0.459842 0.313136 55.747600 40.985400 -0.000006 -0.000013 3.424200 -6.443440 -82.209100 11.754300 -0.000000 0.000003 -0.000118 -0.001183 -16.622800 -2.192510 6.469440 -0.000001 174.613000 2.493900 169.938000 -39.081100 -0.002282 -0.040193 0.094978 -0.026515 73.910300 -40.985400 0.000008 0.000006 -0.926745 3.606230 -46.338000 -11.754300 -0.000006 -0.000006 -0.024772 -0.192418 -24.444800
0.000000 0.000000 0.000000 0.000000 0.000000 -0.000000 -3.559500 82.162300 464.744000 -90.519800 4.895030 173.338000 15.735700 0.000005 -0.000001 100.387000 81.596100 -101.401000 8.984550 -0.406207 -0.000000 8.802760 3.006040 -2.256790 16.377300 -0.000001 -0.000001 -5.783430 -6.026910 2.473220 6.456720 -0.000001 -0.000000 -15.874300 -8.613200 0.531184 12.994200 -0.242716 4.980390 -90.516600 1.482550 -70.781100 5.348090 -0.000007 -0.000001 -65.901500 18.951600 6.849250 24.328600 0.000019 0.000005 13.365000 -1.932790 -98.082000 22.291600 -0.000001 0.000005 16.189600 5.490820 -6.142210 12.994500 -0.242716 -4.980390 88.637500 7.798970 -80.059900 -5.348130 -0.000001 -0.000004 -65.352400 35.637500 -3.245770 -24.328900 0.000322 -0.000009 2.483480 0.639694 -75.590000 -22.291500 -0.000108 -0.000004 17.821200 5.542420 -8.335850 -2.192480 -6.469440 -0.000000 173.872000 -1.301240 -28.728500 39.081100 -0.000007 -0.000012 -0.564226 0.328825 59.768100 40.985400 -0.000006 -0.000013 3.750070 -6.019580 -88.164800 11.754300 -0.000000 0.000003 -0.000159 -0.001525 -16.635400 -2.192510 6.469440 -0.000001 173.461000 1.386700 161.122000 -39.081100 -0.002282 -0.040193 0.040588 -0.001059 88.502400 -40.985400 0.000008 0.000006 2.289110 1.606620 -48.874400 -11.754300 -0.000006 -0.000006 -0.026236 -0.199666 -24.744600
0.000000 0.000000 0.000000 0.000000 0.000000 -0.000000 -3.199230 81.163100 459.997000 -89.733800 3.608340 172.786000 15.735700 0.000005 -0.000001 96.788300 81.734300 -97.256000 8.984550 -0.406207 -0.000000 8.661340 1.940800 -1.081570 16.377300 -0.000001 -0.000001 -5.480000 -6.140020 2.294830 6.456720 -0.000001 -0.000000 -15.372200 -7.788390 -0.860129 12.994200 -0.242716 4.980390 -91.349200 4.023930 -71.445700 5.348090 -0.000007 -0.000001 -62.776800 19.587800 -6.416080 24.328600 0.000019 0.000005 18.968500 -2.897350 -98.359200 22.291600 -0.000001 0.000005 19.810600 5.531740 -7.858100 12.994500 -0.242716 -4.980390 88.215800 8.854890 -78.558600 -5.348130 -0.000001 -0.000004 -65.883200 30.095500 6.395050 -24.328900 0.000322 -0.000009 -1.740290 -0.380029 -77.466000 -22.291500 -0.000108 -0.000004 17.609100 5.535760 -8.065840 -2.192480 -6.469440 -0.000000 174.997000 -1.724400 -25.482100 39.081100 -0.000007 -0.000012 -0.645525 0.367162 60.371100 40.985400 -0.000006 -0.000013 4.061030 -4.971540 -92.485400 11.754300 -0.000000 0.000003 -0.000222 -0.002023 -16.653600 -2.192510 6.469440 -0.000001 175.158000 1.913560 151.725000 -39.081100 -0.002282 -0.040193 0.002577 -0.000191 97.904800 -40.985400 0.000008 0.000006 3.926120 -0.688033 -51.310100 -11.754300 -0.000006 -0.000006 -0.024710 -0.192106 -24.431900
0.000000 0.000000 0.000000 0.000000 0.000000 -0.000000 -2.783850 81.374900 454.822000 -88.708400 0.323259 171.761000 15.735700 0.000005 -0.000001 86.916000 82.220300 -86.411400 8.984550 -0.406207 -0.000000 7.775310 -0.833650 1.064710 16.377300 -0.000001 -0.000001 -4.831540 -6.253800 2.107780 6.456720 -0.000001 -0.000000 -14.261900 -5.543000 -1.497710 12.994200 -0.242716 4.980390 -91.242000 3.968160 -72.610100 5.348090 -0.000007 -0.000001 -64.136200 19.135000 -16.496800 24.328600 0.000019 0.000005 25.828900 -6.053500 -102.276000 22.291600 -0.000001 0.000005 20.137000 5.567570 -9.565470 12.994500 -0.242716 -4.980390 88.122300 7.282210 -75.494400 -5.348130 -0.000001 -0.000004 -65.822600 28.742000 13.626800 -24.328900 0.000322 -0.000009 -6.418250 -0.611600 -84.581100 -22.291500 -0.000108 -0.000004 14.521100 5.533640 -7.951080 -2.192480 -6.469440 -0.000000 176.960000 -0.111264 -20.504400 39.081100 -0.000007 -0.000012 -0.672455 0.443797 56.578300 40.985400 -0.000006 -0.000013 4.403430 -3.624270 -94.535500 11.754300 -0.000000 0.000003 -0.000198 -0.001835 -16.646800 -2.192510 6.469440 -0.000001 177.941000 4.601650 143.685000 -39.081100 -0.002282 -0.040193 0.004817 0.000207 101.155000 -40.985400 0.000008 0.000006 5.676370 -3.444110 -54.843000 -11.754300 -0.000006 -0.000006 -0.023865 -0.187827 -24.255100
